<?xml version="1.0" encoding="UTF-8" standalone="no"?>
<svg
   xmlns:dc="http://purl.org/dc/elements/1.1/"
   xmlns:cc="http://creativecommons.org/ns#"
   xmlns:rdf="http://www.w3.org/1999/02/22-rdf-syntax-ns#"
   xmlns:svg="http://www.w3.org/2000/svg"
   xmlns="http://www.w3.org/2000/svg"
   xmlns:sodipodi="http://sodipodi.sourceforge.net/DTD/sodipodi-0.dtd"
   xmlns:inkscape="http://www.inkscape.org/namespaces/inkscape"
   viewBox="0 0 2999.9999 1471.8211"
   enable-background="new 0 0 196.6 95.1"
   id="svg2"
   version="1.1"
   inkscape:version="0.91 r13725"
   sodipodi:docname="Beyonce Logo.svg"
   width="3000"
   height="1471.821">
  <metadata
     id="metadata10">
    <rdf:RDF>
      <cc:Work
         rdf:about="">
        <dc:format>image/svg+xml</dc:format>
        <dc:type
           rdf:resource="http://purl.org/dc/dcmitype/StillImage" />
        <dc:title></dc:title>
      </cc:Work>
    </rdf:RDF>
  </metadata>
  <defs
     id="defs8" />
  <sodipodi:namedview
     pagecolor="#ffffff"
     bordercolor="#666666"
     borderopacity="1"
     objecttolerance="10"
     gridtolerance="10"
     guidetolerance="10"
     inkscape:pageopacity="0"
     inkscape:pageshadow="2"
     inkscape:window-width="1280"
     inkscape:window-height="721"
     id="namedview6"
     showgrid="false"
     fit-margin-left="20"
     fit-margin-top="20"
     fit-margin-right="20"
     fit-margin-bottom="20"
     inkscape:zoom="0.33054428"
     inkscape:cx="1500"
     inkscape:cy="645.91048"
     inkscape:window-x="-4"
     inkscape:window-y="-4"
     inkscape:window-maximized="1"
     inkscape:current-layer="svg2" />
  <path
     d="m 217.23296,1438.2706 -197.23296,0 0,-1144.2522 197.23296,0 c 75.27976,0 171.63784,34.6286 171.63784,180.67137 l 0,261.97355 c 0,54.20142 -27.10071,88.83011 -70.76297,118.94201 42.15667,31.6175 70.76297,64.74059 70.76297,118.94202 l 0,283.05185 c -1.50559,146.0428 -96.35808,180.6714 -171.63784,180.6714 z m 22.58393,-960.56964 c 0,-33.12309 -9.03357,-46.67345 -28.60631,-46.67345 l -39.14547,0 0,364.35402 39.14547,0 c 19.57274,0 28.60631,-13.55036 28.60631,-46.67345 l 0,-271.00712 z m 0,493.8352 c 0,-33.12309 -9.03357,-46.67345 -28.60631,-46.67345 l -39.14547,0 0,377.90439 39.14547,0 c 19.57274,0 28.60631,-13.5504 28.60631,-46.6735 l 0,-284.55744 z m 224.33367,466.73444 0,-1144.2522 313.16378,0 0,137.00911 -162.60427,0 0,347.79247 111.41404,0 0,137.00916 -111.41404,0 0,383.92676 164.10987,0 0,137.0091 -314.66938,0 z m 635.36114,-448.6673 0,448.6673 -150.55951,0 0,-448.6673 -127.97559,-695.5849 146.04273,0 67.75177,474.26242 61.7294,-474.26242 146.0427,0 -143.0315,695.5849 z m 374.8932,462.2177 c -105.3917,0 -192.7162,-78.2909 -192.7162,-195.7274 l 0,-779.89824 c 0,-114.42522 87.3245,-195.72736 192.7162,-195.72736 106.8972,0 192.7162,81.30214 192.7162,195.72736 l 0,779.89824 c 0,115.9309 -85.819,195.7274 -192.7162,195.7274 z m 39.1455,-986.1648 c 0,-25.59512 -13.5504,-40.65107 -39.1455,-40.65107 -25.5951,0 -39.1455,15.05595 -39.1455,40.65107 l 0,799.471 c 0,25.5951 13.5504,40.6511 39.1455,40.6511 25.5951,0 39.1455,-15.056 39.1455,-40.6511 l 0,-799.471 z m 514.9135,972.6144 -126.47,-564.59812 -30.1119,-155.0763 0,719.67442 -126.47,0 0,-1144.2522 156.5819,0 105.3917,555.56455 24.0895,158.08745 0,-713.652 124.9644,0 0,1142.7466 -127.9756,0 z m 394.4659,13.5504 c -105.3917,0 -197.233,-78.2909 -197.233,-195.7274 l 0,-779.89824 c 0,-114.42522 91.8413,-195.72736 197.233,-195.72736 112.9196,0 173.1434,81.30214 173.1434,195.72736 l 0,218.3113 -126.4699,0 0,-222.82808 c 0,-25.59512 -12.0448,-46.67345 -45.1679,-46.67345 -33.1231,0 -45.1679,21.07833 -45.1679,46.67345 l 0,788.93182 c 0,25.5951 12.0448,46.6735 45.1679,46.6735 33.1231,0 45.1679,-21.0784 45.1679,-46.6735 l 0,-224.3337 126.4699,0 0,219.8169 c 0,115.9309 -60.2238,195.7274 -173.1434,195.7274 z m 243.9064,-13.5504 0,-1144.2522 313.1638,0 0,137.00911 -164.1099,0 0,347.79247 111.4141,0 0,137.00916 -111.4141,0 0,383.92676 164.1099,0 0,137.0091 -313.1638,0 z m 185.1882,-1193.9369 -70.763,0 L 2841.4852,20 l 106.8973,0 -96.3581,224.3337 z"
     id="path4"
     inkscape:connector-curvature="0" />
</svg>
